<mxfile modified="2019-10-24T10:17:39.278Z" host="www.draw.io" agent="Mozilla/5.0 (Windows NT 10.0; Win64; x64) AppleWebKit/537.36 (KHTML, like Gecko) Chrome/77.0.3865.120 Safari/537.36" etag="UZ7vTKAXu5DYEUTjdPyW" version="12.1.4" type="github" pages="1">
  <diagram name="Page-1" id="929967ad-93f9-6ef4-fab6-5d389245f69c">
    <mxGraphModel dx="1038" dy="582" grid="1" gridSize="10" guides="1" tooltips="1" connect="1" arrows="1" fold="1" page="1" pageScale="1.5" pageWidth="1169" pageHeight="826" background="none" math="0" shadow="0">
      <root>
        <mxCell id="0" style=";html=1;"/>
        <mxCell id="1" style=";html=1;" parent="0"/>
        <mxCell id="fMAefHu-bsamTqgcCv1i-22" style="edgeStyle=orthogonalEdgeStyle;rounded=0;orthogonalLoop=1;jettySize=auto;html=1;" parent="1" source="fMAefHu-bsamTqgcCv1i-1" target="fMAefHu-bsamTqgcCv1i-2" edge="1">
          <mxGeometry relative="1" as="geometry"/>
        </mxCell>
        <mxCell id="fMAefHu-bsamTqgcCv1i-23" style="edgeStyle=orthogonalEdgeStyle;rounded=0;orthogonalLoop=1;jettySize=auto;html=1;entryX=0.5;entryY=0;entryDx=0;entryDy=0;" parent="1" source="fMAefHu-bsamTqgcCv1i-1" target="fMAefHu-bsamTqgcCv1i-3" edge="1">
          <mxGeometry relative="1" as="geometry"/>
        </mxCell>
        <mxCell id="fMAefHu-bsamTqgcCv1i-1" value="ElectricityCalculator" style="html=1;" parent="1" vertex="1">
          <mxGeometry x="740" y="320" width="130" height="50" as="geometry"/>
        </mxCell>
        <mxCell id="fMAefHu-bsamTqgcCv1i-2" value="&lt;div&gt;Calculator&lt;/div&gt;" style="html=1;" parent="1" vertex="1">
          <mxGeometry x="610" y="440" width="130" height="50" as="geometry"/>
        </mxCell>
        <mxCell id="fMAefHu-bsamTqgcCv1i-21" style="edgeStyle=orthogonalEdgeStyle;rounded=0;orthogonalLoop=1;jettySize=auto;html=1;entryX=0.5;entryY=0;entryDx=0;entryDy=0;" parent="1" source="fMAefHu-bsamTqgcCv1i-3" target="fMAefHu-bsamTqgcCv1i-4" edge="1">
          <mxGeometry relative="1" as="geometry"/>
        </mxCell>
        <mxCell id="fMAefHu-bsamTqgcCv1i-3" value="&lt;div&gt;User&lt;/div&gt;" style="html=1;" parent="1" vertex="1">
          <mxGeometry x="870" y="440" width="130" height="50" as="geometry"/>
        </mxCell>
        <mxCell id="fMAefHu-bsamTqgcCv1i-13" style="edgeStyle=orthogonalEdgeStyle;rounded=0;orthogonalLoop=1;jettySize=auto;html=1;entryX=0;entryY=0.5;entryDx=0;entryDy=0;" parent="1" source="fMAefHu-bsamTqgcCv1i-4" target="fMAefHu-bsamTqgcCv1i-5" edge="1">
          <mxGeometry relative="1" as="geometry"/>
        </mxCell>
        <mxCell id="fMAefHu-bsamTqgcCv1i-14" style="edgeStyle=orthogonalEdgeStyle;rounded=0;orthogonalLoop=1;jettySize=auto;html=1;" parent="1" source="fMAefHu-bsamTqgcCv1i-4" target="fMAefHu-bsamTqgcCv1i-6" edge="1">
          <mxGeometry relative="1" as="geometry"/>
        </mxCell>
        <mxCell id="fMAefHu-bsamTqgcCv1i-4" value="&lt;div&gt;Property&lt;/div&gt;" style="html=1;" parent="1" vertex="1">
          <mxGeometry x="870" y="560" width="130" height="50" as="geometry"/>
        </mxCell>
        <mxCell id="paegc4xlCnf1KGSch1FG-1" style="edgeStyle=orthogonalEdgeStyle;rounded=0;orthogonalLoop=1;jettySize=auto;html=1;" parent="1" source="fMAefHu-bsamTqgcCv1i-5" target="paegc4xlCnf1KGSch1FG-2" edge="1">
          <mxGeometry relative="1" as="geometry">
            <mxPoint x="1260" y="506" as="targetPoint"/>
          </mxGeometry>
        </mxCell>
        <mxCell id="fMAefHu-bsamTqgcCv1i-5" value="&lt;div&gt;Solar Setup &lt;/div&gt;" style="html=1;" parent="1" vertex="1">
          <mxGeometry x="1070" y="481" width="130" height="50" as="geometry"/>
        </mxCell>
        <mxCell id="fMAefHu-bsamTqgcCv1i-6" value="&lt;div&gt;Location&lt;/div&gt;" style="html=1;" parent="1" vertex="1">
          <mxGeometry x="1070" y="560" width="130" height="50" as="geometry"/>
        </mxCell>
        <mxCell id="9O2OfUI6PIkPVo3skTh6-4" style="edgeStyle=orthogonalEdgeStyle;rounded=0;orthogonalLoop=1;jettySize=auto;html=1;entryX=1;entryY=0.5;entryDx=0;entryDy=0;endArrow=none;endFill=0;startArrow=classic;startFill=1;" parent="1" source="fMAefHu-bsamTqgcCv1i-9" target="fMAefHu-bsamTqgcCv1i-4" edge="1">
          <mxGeometry relative="1" as="geometry"/>
        </mxCell>
        <mxCell id="fMAefHu-bsamTqgcCv1i-9" value="Contract" style="html=1;" parent="1" vertex="1">
          <mxGeometry x="1070" y="641" width="130" height="50" as="geometry"/>
        </mxCell>
        <mxCell id="fMAefHu-bsamTqgcCv1i-25" value="&lt;div&gt;1&lt;/div&gt;" style="text;html=1;resizable=0;points=[];autosize=1;align=left;verticalAlign=top;spacingTop=-4;" parent="1" vertex="1">
          <mxGeometry x="787" y="382" width="20" height="20" as="geometry"/>
        </mxCell>
        <mxCell id="fMAefHu-bsamTqgcCv1i-26" value="&lt;div&gt;1&lt;/div&gt;" style="text;html=1;resizable=0;points=[];autosize=1;align=left;verticalAlign=top;spacingTop=-4;" parent="1" vertex="1">
          <mxGeometry x="810" y="382" width="20" height="20" as="geometry"/>
        </mxCell>
        <mxCell id="fMAefHu-bsamTqgcCv1i-28" value="1" style="text;html=1;resizable=0;points=[];autosize=1;align=left;verticalAlign=top;spacingTop=-4;" parent="1" vertex="1">
          <mxGeometry x="685" y="412" width="20" height="20" as="geometry"/>
        </mxCell>
        <mxCell id="fMAefHu-bsamTqgcCv1i-29" value="&lt;div&gt;n&lt;/div&gt;" style="text;html=1;resizable=0;points=[];autosize=1;align=left;verticalAlign=top;spacingTop=-4;" parent="1" vertex="1">
          <mxGeometry x="906.5" y="412" width="20" height="20" as="geometry"/>
        </mxCell>
        <mxCell id="fMAefHu-bsamTqgcCv1i-33" value="&lt;div&gt;1&lt;/div&gt;" style="text;html=1;resizable=0;points=[];autosize=1;align=left;verticalAlign=top;spacingTop=-4;" parent="1" vertex="1">
          <mxGeometry x="914" y="497" width="20" height="20" as="geometry"/>
        </mxCell>
        <mxCell id="fMAefHu-bsamTqgcCv1i-34" value="&lt;div&gt;n&lt;/div&gt;" style="text;html=1;resizable=0;points=[];autosize=1;align=left;verticalAlign=top;spacingTop=-4;" parent="1" vertex="1">
          <mxGeometry x="914" y="533" width="20" height="20" as="geometry"/>
        </mxCell>
        <mxCell id="fMAefHu-bsamTqgcCv1i-35" value="&lt;div&gt;1&lt;/div&gt;" style="text;html=1;resizable=0;points=[];autosize=1;align=left;verticalAlign=top;spacingTop=-4;" parent="1" vertex="1">
          <mxGeometry x="1005" y="565" width="20" height="20" as="geometry"/>
        </mxCell>
        <mxCell id="fMAefHu-bsamTqgcCv1i-36" value="1" style="text;html=1;resizable=0;points=[];autosize=1;align=left;verticalAlign=top;spacingTop=-4;" parent="1" vertex="1">
          <mxGeometry x="1050" y="484" width="20" height="20" as="geometry"/>
        </mxCell>
        <mxCell id="fMAefHu-bsamTqgcCv1i-37" value="&lt;div&gt;1&lt;/div&gt;" style="text;html=1;resizable=0;points=[];autosize=1;align=left;verticalAlign=top;spacingTop=-4;" parent="1" vertex="1">
          <mxGeometry x="1050" y="565" width="20" height="20" as="geometry"/>
        </mxCell>
        <mxCell id="fMAefHu-bsamTqgcCv1i-43" value="&lt;div&gt;1&lt;/div&gt;" style="text;html=1;resizable=0;points=[];autosize=1;align=left;verticalAlign=top;spacingTop=-4;" parent="1" vertex="1">
          <mxGeometry x="1050" y="646" width="20" height="20" as="geometry"/>
        </mxCell>
        <mxCell id="paegc4xlCnf1KGSch1FG-2" value="Solar Panel" style="html=1;" parent="1" vertex="1">
          <mxGeometry x="1260" y="481" width="130" height="50" as="geometry"/>
        </mxCell>
        <mxCell id="paegc4xlCnf1KGSch1FG-3" value="1" style="text;html=1;resizable=0;points=[];autosize=1;align=left;verticalAlign=top;spacingTop=-4;" parent="1" vertex="1">
          <mxGeometry x="1202" y="486" width="20" height="20" as="geometry"/>
        </mxCell>
        <mxCell id="paegc4xlCnf1KGSch1FG-4" value="n" style="text;html=1;resizable=0;points=[];autosize=1;align=left;verticalAlign=top;spacingTop=-4;" parent="1" vertex="1">
          <mxGeometry x="1240" y="486" width="20" height="20" as="geometry"/>
        </mxCell>
        <mxCell id="QloO-rrkzWw00HRdYaCa-1" value="Text" style="text;html=1;resizable=0;points=[];autosize=1;align=left;verticalAlign=top;spacingTop=-4;" parent="1" vertex="1">
          <mxGeometry x="325" y="360" width="40" height="20" as="geometry"/>
        </mxCell>
      </root>
    </mxGraphModel>
  </diagram>
</mxfile>
